<svg width="1200" height="900" viewBox="0 0 1200 900" fill="none" xmlns="http://www.w3.org/2000/svg">
  <rect width="1200" height="900" rx="48" fill="#0A0D12"/>
  <rect x="36" y="36" width="1128" height="828" rx="36" fill="url(#panel)"/>
  <rect x="92" y="104" width="196" height="32" rx="16" fill="rgba(72,196,255,0.18)"/>
  <rect x="92" y="168" width="388" height="92" rx="24" fill="rgba(255,255,255,0.08)"/>
  <rect x="92" y="288" width="304" height="26" rx="13" fill="rgba(255,255,255,0.14)"/>
  <rect x="92" y="336" width="248" height="26" rx="13" fill="rgba(255,255,255,0.1)"/>
  <rect x="92" y="420" width="468" height="280" rx="32" fill="rgba(255,255,255,0.04)" stroke="rgba(255,255,255,0.08)"/>
  <path d="M192 608L282 514L364 582L478 468" stroke="#48C4FF" stroke-width="18" stroke-linecap="round" stroke-linejoin="round"/>
  <circle cx="192" cy="608" r="22" fill="#D4AF37"/>
  <circle cx="282" cy="514" r="22" fill="#48C4FF"/>
  <circle cx="364" cy="582" r="22" fill="#D4AF37"/>
  <circle cx="478" cy="468" r="22" fill="#48C4FF"/>
  <rect x="640" y="168" width="468" height="532" rx="32" fill="rgba(255,255,255,0.04)" stroke="rgba(255,255,255,0.08)"/>
  <circle cx="874" cy="364" r="128" fill="url(#orb)" fill-opacity="0.9"/>
  <path d="M810 364H938" stroke="white" stroke-opacity="0.7" stroke-width="18" stroke-linecap="round"/>
  <path d="M874 300V428" stroke="white" stroke-opacity="0.7" stroke-width="18" stroke-linecap="round"/>
  <rect x="724" y="566" width="300" height="24" rx="12" fill="rgba(255,255,255,0.14)"/>
  <rect x="724" y="614" width="224" height="24" rx="12" fill="rgba(255,255,255,0.1)"/>
  <rect x="724" y="86" width="170" height="36" rx="18" fill="rgba(212,175,55,0.18)"/>
  <defs>
    <linearGradient id="panel" x1="88" y1="94" x2="1088" y2="812" gradientUnits="userSpaceOnUse">
      <stop stop-color="#111722"/>
      <stop offset="1" stop-color="#151922"/>
    </linearGradient>
    <radialGradient id="orb" cx="0" cy="0" r="1" gradientUnits="userSpaceOnUse" gradientTransform="translate(874 364) rotate(90) scale(128)">
      <stop stop-color="#D4AF37"/>
      <stop offset="1" stop-color="#48C4FF"/>
    </radialGradient>
  </defs>
</svg>
